<?xml version="1.0" encoding="utf-8"?><svg xmlns="http://www.w3.org/2000/svg" xmlns:xlink="http://www.w3.org/1999/xlink"><symbol viewBox="0 0 22 24" id="basket" xmlns="http://www.w3.org/2000/svg"><g clip-path="url(#aa)"><path d="M10.363 18.443a2.046 2.046 0 0 0-2.045 2.042 2.046 2.046 0 0 0 4.09 0 2.046 2.046 0 0 0-2.045-2.042Zm6.134 0a2.046 2.046 0 0 0-2.045 2.042 2.046 2.046 0 0 0 4.089 0 2.046 2.046 0 0 0-2.044-2.042Zm3.978-8.199L7.413 6.891a.614.614 0 0 0-.75.73L8.67 16.4h-.786L5.482 5.895a.613.613 0 0 0-.474-.464l-4.27-.882A.614.614 0 0 0 .489 5.75l3.885.802L6.797 17.15a.613.613 0 0 0 .598.477h12.07a.615.615 0 0 0 .607-.53l.858-6.175a.613.613 0 0 0-.455-.678Zm-8.14 3.91a.613.613 0 0 1-1.227 0v-2.696a.613.613 0 0 1 1.227 0v2.696Zm2.625 0a.613.613 0 0 1-1.227 0v-1.88a.613.613 0 0 1 1.227 0v1.88Zm2.625 0a.613.613 0 0 1-1.227 0v-1.226a.613.613 0 0 1 1.227 0v1.226Z"/></g><path fill-rule="evenodd" clip-rule="evenodd" d="M16.268 4.568a2.996 2.996 0 0 0-1.693-.523c-.627 0-1.21.193-1.693.523-.28-.843-.492-1.752-.492-2.383C12.39.98 13.37 0 14.575 0s2.185.98 2.185 2.185c0 .631-.212 1.54-.492 2.383Zm-4.722 2.274.024.006v-.011l-.024.005Zm4.972 1.217c-1.333-.33-2.766-.681-4.129-1.013a2.185 2.185 0 1 1 4.129 1.013Zm4.436 1.103c-.866-.217-2.155-.538-3.618-.9a2.995 2.995 0 0 0 .243-1.425c.87.18 1.762.45 2.308.765.596.344.969.928 1.067 1.56ZM9.869 6.439c-.36-.086-.706-.167-1.03-.243a2.19 2.19 0 0 1-.376-2.667 2.188 2.188 0 0 1 3.147-.7c.098.738.338 1.599.61 2.353a3.01 3.01 0 0 0-.449.774c-.628.113-1.305.278-1.902.483Zm10.124.075a3.43 3.43 0 0 1-.217.114c-.696-.295-1.587-.526-2.397-.672a3.01 3.01 0 0 0-.449-.774c.262-.727.494-1.553.599-2.273.095-.067.189-.128.278-.18a2.188 2.188 0 0 1 2.986.8 2.188 2.188 0 0 1-.8 2.985Z"/><defs><clipPath id="aa"><path transform="translate(0 3.064)" d="M0 0h20.936v20.936H0z"/></clipPath></defs></symbol><symbol viewBox="0 0 344.96 344.96" id="check" xmlns="http://www.w3.org/2000/svg"><g data-name="Слой 2"><path class="bcls-1" d="m321.85 86.24-40-23.11-23.1-40H212.5L172.48 0l-40 23.11H86.24l-23.11 40-40 23.1v46.21L0 172.48l23.11 40v46.21l40 23.11 23.11 40h46.21l40 23.1 40-23.11h46.21l23.11-40 40-23.11V212.5l23.11-40-23.11-40V86.24ZM156.91 243.07a16.79 16.79 0 0 1-23.34 0l-50.45-50.44a16.19 16.19 0 0 1 0-22.89l13.35-13.35a16.19 16.19 0 0 1 22.89 0l25.87 25.87 80.34-80.35a16.19 16.19 0 0 1 22.89 0l13.35 13.35a16.19 16.19 0 0 1 0 22.89Z" data-name="Capa 1"/></g></symbol><symbol viewBox="0 0 24 24" id="edit" xmlns="http://www.w3.org/2000/svg"><g clip-path="url(#ca)"><path fill-rule="evenodd" clip-rule="evenodd" d="M20.273.07c-.407.087-1.01.391-1.308.659-.34.306-10.926 11.898-11.055 12.105-.21.339-1.418 4.083-1.418 4.393.001.917.784 1.602 1.635 1.43.315-.063 3.978-1.656 4.201-1.827.122-.093 9.524-10.361 10.843-11.842C25.064 2.865 23.064-.53 20.273.07Zm1.009 2.077c.508.23.735.9.451 1.332-.046.07-2.135 2.375-4.642 5.12l-4.558 4.99-.7-.642-.701-.64.18-.19c.1-.105 2.176-2.376 4.614-5.047 3.487-3.821 4.47-4.872 4.612-4.93.24-.1.514-.098.744.007Zm-17.027.102C2.247 2.447.561 3.961.132 5.953c-.08.372-.085.797-.085 7.216v6.82l.125.451c.517 1.873 1.951 3.185 3.812 3.488.63.102 13.34.102 13.97 0 1.854-.302 3.3-1.62 3.807-3.47l.128-.469.015-4.758c.016-5.255.027-5.037-.284-5.375-.488-.53-1.31-.41-1.667.242-.07.128-.08.587-.101 4.922l-.024 4.782-.105.308a2.749 2.749 0 0 1-1.69 1.693l-.314.108h-13.5l-.314-.108a2.765 2.765 0 0 1-1.69-1.693l-.106-.308-.012-6.55c-.011-5.541-.003-6.598.054-6.871.193-.924.872-1.671 1.81-1.99l.305-.104 4.921-.024c4.472-.022 4.935-.031 5.063-.102.74-.41.714-1.426-.047-1.836l-.187-.101-4.688-.006c-2.578-.004-4.86.01-5.073.031Zm6.616 12.613.282.263-.142.073c-.336.174-1.999.881-2.02.86-.024-.024.614-1.99.698-2.153.045-.087.183.024 1.182.957Z"/></g><defs><clipPath id="ca"><path d="M0 0h24v24H0z"/></clipPath></defs></symbol><symbol viewBox="0 0 24 24" id="fb" xmlns="http://www.w3.org/2000/svg"><path d="M13.397 20.997v-8.196h2.765l.411-3.209h-3.176V7.548c0-.926.258-1.56 1.587-1.56h1.684v-2.86A22.108 22.108 0 0 0 14.201 3c-2.444 0-4.122 1.492-4.122 4.231v2.355H7.332v3.21h2.753v8.201h3.312Z"/></symbol><symbol viewBox="0 0 24 24" id="file" xmlns="http://www.w3.org/2000/svg"><path fill-rule="evenodd" clip-rule="evenodd" d="m7.309 2.024-1.204.124c-.567.058-1.194.135-1.392.171a4.55 4.55 0 0 0-3.635 3.586c-.112.586-.1 11.34.014 11.882.352 1.678 1.684 3.071 3.328 3.484.53.133 1.927.289 3.856.43 3.34.245 9.57.008 11.348-.432 1.573-.39 2.832-1.637 3.276-3.248l.1-.362V6.524l-.096-.343c-.46-1.65-1.639-2.823-3.318-3.3-.323-.092-.367-.094-4.754-.117l-4.428-.023-.215-.129c-.76-.456-1.907-.69-2.88-.588Zm1.493 1.98c.574.213.724.335 2.268 1.842 1.747 1.704 2.018 1.9 3.074 2.214l.387.115 2.171.03c2.4.032 2.415.034 2.967.32.662.343 1.106.856 1.363 1.574l.12.335.012 3.31c.014 4.009.015 4.003-.563 4.773-.673.896-1.294 1.07-4.673 1.309-4.424.314-10.288.038-11.521-.54-.659-.31-1.217-.97-1.447-1.712-.123-.396-.123-11.122 0-11.518.276-.891.998-1.611 1.868-1.864.2-.058.8-.135 2.158-.28.682-.071 1.485-.03 1.816.092Zm10.17.653a2.715 2.715 0 0 1 2.134 2.115c.108.52.108.52-.174.342a5.257 5.257 0 0 0-1.371-.598l-.43-.114-2.128-.025-2.128-.025-.344-.12c-.527-.182-.803-.375-1.482-1.033l-.624-.606 3.107-.002c2.662 0 3.156.009 3.44.066ZM4.45 15.467c-.834.253-.953 1.314-.194 1.718l.172.092h15.176l.172-.092a.922.922 0 0 0 0-1.644l-.172-.092-7.523-.007c-4.138-.004-7.572.007-7.631.025Z"/></symbol><symbol viewBox="0 0 24 24" id="instagram" xmlns="http://www.w3.org/2000/svg"><path d="M11.999 7.377a4.624 4.624 0 1 0 0 9.248 4.624 4.624 0 0 0 0-9.248Zm0 7.627a3.004 3.004 0 1 1 0-6.008 3.004 3.004 0 0 1 0 6.008Zm4.807-6.719a1.078 1.078 0 1 0 0-2.156 1.078 1.078 0 0 0 0 2.156Z"/><path d="M20.533 6.11A4.605 4.605 0 0 0 17.9 3.48a6.607 6.607 0 0 0-2.186-.42c-.963-.042-1.268-.054-3.71-.054s-2.755 0-3.71.054a6.554 6.554 0 0 0-2.184.42 4.6 4.6 0 0 0-2.633 2.63 6.585 6.585 0 0 0-.419 2.186c-.043.962-.056 1.267-.056 3.71 0 2.442 0 2.753.056 3.71.015.748.156 1.486.419 2.187a4.61 4.61 0 0 0 2.634 2.632 6.583 6.583 0 0 0 2.185.45c.963.042 1.268.055 3.71.055s2.755 0 3.71-.055a6.616 6.616 0 0 0 2.186-.42 4.613 4.613 0 0 0 2.633-2.632c.263-.7.404-1.438.419-2.186.043-.962.056-1.267.056-3.71s0-2.753-.056-3.71a6.583 6.583 0 0 0-.421-2.217Zm-1.218 9.533a5.046 5.046 0 0 1-.311 1.688 2.987 2.987 0 0 1-1.712 1.71c-.535.2-1.1.305-1.67.312-.95.044-1.218.055-3.654.055-2.438 0-2.687 0-3.655-.055a4.961 4.961 0 0 1-1.67-.311 2.984 2.984 0 0 1-1.718-1.711 5.08 5.08 0 0 1-.311-1.67c-.043-.95-.053-1.217-.053-3.653 0-2.437 0-2.686.053-3.655a5.038 5.038 0 0 1 .311-1.687c.305-.79.93-1.41 1.719-1.712a5.01 5.01 0 0 1 1.669-.311c.95-.043 1.218-.055 3.655-.055s2.687 0 3.654.055a4.96 4.96 0 0 1 1.67.31 2.99 2.99 0 0 1 1.712 1.713 5.06 5.06 0 0 1 .311 1.669c.043.95.054 1.218.054 3.655 0 2.436 0 2.698-.043 3.654h-.011v-.001Z"/></symbol><symbol viewBox="0 0 24 24" id="objects" xmlns="http://www.w3.org/2000/svg"><path fill-rule="evenodd" clip-rule="evenodd" d="M2.898 1.073a2.623 2.623 0 0 0-1.825 1.841c-.097.382-.097 5.935 0 6.317.226.884.96 1.619 1.844 1.845.382.097 5.936.097 6.317 0A2.611 2.611 0 0 0 11.08 9.23c.097-.382.097-5.935 0-6.317A2.611 2.611 0 0 0 9.234 1.07c-.37-.095-5.976-.093-6.336.003Zm11.906-.006c-.904.219-1.71 1.047-1.895 1.948-.031.15-.047 1.183-.047 3.058 0 1.875.016 2.907.047 3.058.19.923 1.04 1.773 1.963 1.963.314.065 5.802.065 6.116 0 .923-.19 1.774-1.04 1.963-1.963.065-.314.065-5.802 0-6.116-.19-.924-1.04-1.774-1.963-1.964-.345-.07-5.884-.057-6.184.016Zm-5.868 1.75c.478.262.469.195.469 3.256 0 3.06.01 2.994-.469 3.255-.204.112-5.517.112-5.72 0-.172-.094-.394-.347-.436-.497-.075-.27-.038-5.476.04-5.619.092-.167.35-.396.476-.423l.181-.04c.291-.064 5.332-.002 5.46.068Zm11.85.02c.492.263.473.13.473 3.236 0 3.73.4 3.328-3.329 3.328-3.73 0-3.329.401-3.329-3.328 0-3.73-.396-3.346 3.437-3.336 2.546.007 2.579.008 2.748.1ZM2.898 12.926c-.87.23-1.602.968-1.825 1.841-.097.382-.097 5.936 0 6.317a2.61 2.61 0 0 0 1.844 1.845c.382.097 5.936.097 6.317 0a2.611 2.611 0 0 0 1.845-1.845c.097-.381.097-5.935 0-6.317a2.611 2.611 0 0 0-1.845-1.844c-.37-.095-5.976-.092-6.336.003Zm11.906-.006c-.904.219-1.71 1.047-1.895 1.948-.031.15-.047 1.183-.047 3.058 0 1.875.016 2.907.047 3.058.19.923 1.04 1.773 1.963 1.963.314.065 5.802.065 6.116 0 .923-.19 1.774-1.04 1.963-1.963.065-.314.065-5.802 0-6.116-.19-.923-1.04-1.774-1.963-1.963-.345-.071-5.884-.058-6.184.015Zm-5.868 1.75c.478.262.469.195.469 3.256 0 3.06.01 2.994-.469 3.256-.204.111-5.517.111-5.72 0-.172-.094-.394-.347-.436-.497-.075-.27-.038-5.476.04-5.62.092-.167.35-.396.476-.422l.181-.04c.291-.065 5.332-.002 5.46.067Zm11.85.02c.492.263.473.13.473 3.236 0 3.73.4 3.329-3.329 3.329-3.73 0-3.329.4-3.329-3.329 0-3.73-.396-3.345 3.437-3.335 2.546.006 2.579.007 2.748.098Z"/></symbol><symbol viewBox="0 0 20 20" id="plus" xmlns="http://www.w3.org/2000/svg"><path fill-rule="evenodd" clip-rule="evenodd" d="M9.657 4.066a.896.896 0 0 0-.41.41c-.057.123-.06.274-.061 2.421v2.29l-2.29.001c-2.148 0-2.299.004-2.422.06-.632.288-.632 1.22 0 1.508.123.056.274.06 2.421.06l2.29.001v2.29c.002 2.147.005 2.298.061 2.42.287.633 1.22.633 1.508 0 .056-.122.06-.273.06-2.42v-2.29h2.29c2.148-.001 2.299-.005 2.422-.061.632-.287.632-1.22 0-1.508-.123-.056-.274-.06-2.421-.06h-2.29v-2.29c-.002-2.556.01-2.422-.23-2.663a.878.878 0 0 0-.928-.17Z"/></symbol><symbol viewBox="0 0 24 24" id="settings" xmlns="http://www.w3.org/2000/svg"><path fill-rule="evenodd" clip-rule="evenodd" d="M10.034 1.077c-1.194.318-2.073 1.451-2.078 2.679-.002.62-.552.89-1.205.587-1.186-.549-2.353-.366-3.228.507-.349.348-1.741 2.658-1.913 3.173-.421 1.266.03 2.55 1.16 3.3.58.386.578.971-.006 1.36-1.123.745-1.576 2.03-1.157 3.284.175.525 1.563 2.832 1.916 3.184.875.872 2.075 1.058 3.242.504.634-.3 1.189-.025 1.191.591.004 1.157.842 2.297 1.943 2.643.508.16 3.667.16 4.176 0 1.1-.346 1.938-1.486 1.942-2.643.002-.616.558-.892 1.191-.591 1.168.554 2.367.368 3.242-.504.355-.354 1.706-2.592 1.903-3.151.442-1.257-.01-2.565-1.144-3.318-.615-.408-.589-.962.065-1.409 1.082-.74 1.512-2.04 1.08-3.27-.197-.56-1.549-2.798-1.904-3.153-.874-.872-2.042-1.056-3.228-.507-.652.302-1.203.034-1.205-.587-.004-1.144-.825-2.274-1.918-2.641-.45-.152-3.53-.18-4.065-.038Zm3.541 2.041c.267.157.339.297.387.756.223 2.106 2.227 3.271 4.046 2.353.598-.302.892-.185 1.308.518 1.384 2.346 1.407 2.442.71 2.9-1.713 1.123-1.732 3.521-.038 4.683.683.467.67.603-.177 2.08-.926 1.611-1.084 1.73-1.819 1.359-1.807-.912-3.811.262-4.03 2.36-.087.827-.142.85-1.975.85-1.834 0-1.89-.023-1.975-.85-.22-2.098-2.224-3.272-4.031-2.36-.735.37-.893.252-1.819-1.36-.844-1.47-.858-1.625-.188-2.068 1.701-1.126 1.693-3.519-.018-4.69-.66-.452-.644-.579.263-2.145.893-1.541 1.027-1.64 1.746-1.277 1.816.917 3.824-.248 4.045-2.347.09-.839.18-.876 2.07-.864 1.243.008 1.347.015 1.495.102Zm-2.463 3.934c-3.553.676-5.282 4.685-3.32 7.698 1.954 3.003 6.435 3.003 8.39 0 1.509-2.319.858-5.444-1.446-6.944-1.04-.677-2.47-.974-3.624-.754Zm1.601 2.07c1.296.309 2.232 1.517 2.232 2.879 0 2.645-3.167 3.955-5.048 2.087-2.126-2.113-.113-5.664 2.816-4.966Z"/></symbol><symbol viewBox="0 0 24 24" id="tasks" xmlns="http://www.w3.org/2000/svg"><path fill-rule="evenodd" clip-rule="evenodd" d="M5.421 2.035c-1.583.234-2.897 1.42-3.315 2.992L2 5.425v6.532c0 5.282.012 6.59.063 6.836a4.098 4.098 0 0 0 3.145 3.144c.247.051 1.555.063 6.839.063h6.534l.398-.106a4.103 4.103 0 0 0 2.916-2.918l.105-.394V5.425l-.105-.394a4.125 4.125 0 0 0-2.893-2.918l-.374-.105L12.164 2c-3.555-.004-6.59.011-6.743.034Zm13.381 2.181c.438.207.75.513.963.945l.174.353v12.974l-.15.315a1.97 1.97 0 0 1-.944.962l-.353.175H5.512l-.314-.15a1.97 1.97 0 0 1-.963-.944l-.174-.353V5.518l.148-.312c.251-.53.648-.884 1.21-1.079.219-.076.658-.08 6.651-.07l6.417.01.315.15Zm-3.804 4.79c-.29.054-.373.126-2.072 1.819l-1.674 1.668-.809-.804c-.552-.549-.875-.834-1.02-.9-.781-.354-1.6.335-1.402 1.18.059.252 2.269 2.58 2.707 2.853.245.152.72.165 1.002.028.232-.112 4.237-4.14 4.369-4.393.378-.726-.287-1.601-1.101-1.451Z"/></symbol><symbol viewBox="0 0 15 13" id="telegram" xmlns="http://www.w3.org/2000/svg"><path d="M13.678.073.303 5.463c-.435.147-.386.784.048.932l3.38 1.078 1.352 4.312a.463.463 0 0 0 .773.196l1.98-1.862 3.765 2.793c.29.196.676.05.773-.294L14.981 1.25c.145-.833-.58-1.47-1.303-1.176ZM5.856 8.306l-.435 2.548-.966-3.528 9.416-6.273-8.015 7.253Z"/></symbol><symbol viewBox="0 0 16 16" id="viber" xmlns="http://www.w3.org/2000/svg"><path d="M8 1.335c-1.071.013-3.374.19-4.662 1.37-.958.948-1.292 2.35-1.331 4.084-.033 1.728-.072 4.973 3.058 5.856v1.346s-.02.538.337.648c.438.14.688-.275 1.105-.72l.778-.879c2.142.178 3.782-.232 3.97-.293.435-.139 2.883-.451 3.283-3.696.41-3.351-.2-5.463-1.301-6.418h-.007c-.332-.306-1.668-1.279-4.652-1.29 0 0-.222-.014-.578-.008Zm.037.942a7.02 7.02 0 0 1 .488.011c2.527.007 3.732.767 4.017 1.023.927.794 1.405 2.697 1.055 5.495-.332 2.713-2.317 2.885-2.685 3.002-.156.05-1.6.406-3.42.289 0 0-1.356 1.634-1.78 2.055-.067.074-.146.095-.196.085-.071-.018-.093-.107-.089-.229l.013-2.233c-2.655-.733-2.498-3.5-2.47-4.946.033-1.446.304-2.628 1.113-3.43 1.088-.982 3.043-1.115 3.953-1.122Zm.2 1.446a.166.166 0 1 0 0 .332 3.136 3.136 0 0 1 2.242.883c.606.588.9 1.378.912 2.411 0 .092.074.167.167.167V7.51a.167.167 0 0 0 .168-.165 3.588 3.588 0 0 0-1.009-2.646c-.66-.645-1.496-.977-2.48-.977Zm-2.198.382a.523.523 0 0 0-.342.067H5.69a2.61 2.61 0 0 0-.637.523 1.003 1.003 0 0 0-.256.525.71.71 0 0 0 .026.302l.01.006c.172.504.396.988.67 1.444a8.48 8.48 0 0 0 1.29 1.762l.015.022.024.017.015.018.017.015c.532.505 1.127.94 1.769 1.295.734.4 1.18.588 1.447.667v.004c.078.024.15.034.221.034.228-.016.444-.109.613-.262a2.53 2.53 0 0 0 .517-.638v-.004c.128-.241.085-.469-.1-.623-.37-.323-.77-.61-1.195-.857-.285-.155-.574-.061-.69.095l-.25.315c-.129.156-.361.134-.361.134l-.007.004C7.093 8.527 6.63 6.772 6.63 6.772s-.022-.239.139-.36l.312-.252c.15-.122.254-.41.094-.695a7.498 7.498 0 0 0-.856-1.194.475.475 0 0 0-.28-.167Zm2.486.495c-.221 0-.221.334.003.334A2.098 2.098 0 0 1 10 5.572 1.94 1.94 0 0 1 10.5 7a.168.168 0 0 0 .167.165l.007.009a.169.169 0 0 0 .167-.167c.015-.662-.191-1.218-.595-1.663C9.84 4.9 9.273 4.65 8.549 4.6h-.024Zm.274.898c-.228-.006-.236.335-.01.341.55.029.816.306.851.877a.166.166 0 0 0 .165.163h.007a.168.168 0 0 0 .16-.178c-.039-.744-.445-1.164-1.166-1.202H8.8Z"/></symbol><symbol viewBox="0 0 24 24" id="vk" xmlns="http://www.w3.org/2000/svg"><path d="M21.579 6.855c.14-.465 0-.806-.662-.806h-2.193c-.558 0-.813.295-.953.619 0 0-1.115 2.719-2.695 4.482-.51.513-.743.675-1.021.675-.139 0-.341-.162-.341-.627V6.855c0-.558-.161-.806-.626-.806H9.642c-.348 0-.558.258-.558.504 0 .528.79.65.871 2.138v3.228c0 .707-.127.836-.407.836-.743 0-2.551-2.73-3.624-5.853-.209-.607-.42-.852-.98-.852H2.752c-.627 0-.752.295-.752.619 0 .582.743 3.462 3.461 7.27 1.812 2.602 4.363 4.012 6.687 4.012 1.393 0 1.565-.313 1.565-.853v-1.966c0-.626.133-.752.574-.752.324 0 .882.164 2.183 1.417 1.486 1.486 1.732 2.153 2.567 2.153h2.192c.626 0 .939-.313.759-.931-.197-.615-.907-1.51-1.849-2.57-.512-.603-1.277-1.253-1.51-1.578-.325-.42-.231-.604 0-.976.001 0 2.672-3.761 2.95-5.04Z"/></symbol><symbol viewBox="0 0 16 16" id="whatsapp" xmlns="http://www.w3.org/2000/svg"><path fill-rule="evenodd" clip-rule="evenodd" d="M12.269 3.755A5.947 5.947 0 0 0 8.035 2 5.994 5.994 0 0 0 2.05 7.985a5.98 5.98 0 0 0 .799 2.992L2 14.077l3.173-.832c.877.477 1.86.728 2.86.728h.002a5.993 5.993 0 0 0 5.533-8.276 5.953 5.953 0 0 0-1.3-1.942Zm-4.234 9.208h-.002c-.89 0-1.765-.24-2.532-.694l-.181-.108-1.883.494.502-1.835-.118-.188a4.965 4.965 0 0 1-.76-2.647 4.982 4.982 0 0 1 6.88-4.597c.604.25 1.152.618 1.613 1.081a4.946 4.946 0 0 1 1.455 3.52 4.982 4.982 0 0 1-4.974 4.974Zm2.729-3.726c-.15-.075-.885-.436-1.022-.486-.137-.05-.236-.075-.336.074-.1.15-.387.486-.474.586-.087.1-.175.112-.324.038-.15-.075-.631-.233-1.203-.742a4.505 4.505 0 0 1-.832-1.036c-.087-.15-.009-.231.066-.306.068-.066.15-.174.224-.262.075-.087.1-.149.15-.249.05-.1.025-.187-.013-.262-.037-.075-.337-.811-.461-1.11-.121-.29-.244-.252-.336-.256a6.418 6.418 0 0 0-.286-.005.55.55 0 0 0-.4.186c-.137.15-.523.512-.523 1.248s.536 1.447.61 1.547c.075.1 1.055 1.61 2.555 2.258.358.154.636.246.853.315.358.114.684.098.942.06.287-.043.885-.362 1.01-.711.124-.35.124-.649.087-.711-.038-.063-.138-.101-.287-.176Z"/></symbol><symbol viewBox="0 0 24 24" id="workers" xmlns="http://www.w3.org/2000/svg"><g clip-path="url(#oa)"><path fill-rule="evenodd" clip-rule="evenodd" d="M10.535 2.698c-1.02.28-1.867 1.182-2.051 2.187-.058.314-.058.314-.27.393-3.504 1.305-6.115 5.04-6.327 9.052-.056 1.046-.208 1.272-.943 1.4-.432.076-.624.18-.798.435-.134.195-.201 2.476-.09 3.008.163.769.764 1.55 1.455 1.892.677.334-.155.31 10.498.31 10.654 0 9.821.024 10.498-.31.692-.342 1.293-1.123 1.455-1.892.112-.532.044-2.813-.09-3.008-.174-.254-.366-.359-.797-.434-.736-.129-.888-.355-.944-1.4-.178-3.372-1.852-6.317-4.637-8.157-.44-.29-1.74-.97-1.856-.97-.025 0-.071-.142-.103-.316-.185-1.01-1.047-1.928-2.056-2.188-.383-.099-2.586-.1-2.944-.002Zm2.401 1.852a.98.98 0 0 1 .649.5c.084.168.09.383.112 4.212l.023 4.035.113.165c.378.551 1.224.551 1.602 0l.113-.165.024-3.01.023-3.012.445.256c2.555 1.468 4.033 3.989 4.198 7.156.017.33.058.704.092.832l.061.232H3.627l.062-.237c.035-.13.077-.525.094-.879.152-3.172 1.71-5.732 4.393-7.22l.269-.148.012 3.015.013 3.015.113.165c.378.551 1.224.551 1.602 0l.113-.165.024-4.035c.026-4.52.002-4.227.367-4.528.266-.219 1.582-.327 2.247-.184Zm9.198 13.519c0 .873-.212 1.265-.746 1.38-.345.074-18.413.074-18.758 0-.534-.115-.746-.507-.746-1.38v-.443h20.25v.443Z"/></g><defs><clipPath id="oa"><path d="M0 0h24v24H0z"/></clipPath></defs></symbol></svg>