<svg width="20" height="20" viewBox="0 0 20 20" fill="none" xmlns="http://www.w3.org/2000/svg">
<g id="add" clip-path="url(#clip0_576_5651)">
<path id="add (3) 1 (Traced)" fill-rule="evenodd" clip-rule="evenodd" d="M8.78075 0.076417C1.96864 0.903175 -2.02269 8.3361 1.05223 14.469C4.7613 21.8668 15.3027 21.8553 18.9774 14.4495C22.504 7.34239 16.67 -0.881044 8.78075 0.076417ZM11.2605 1.67829C16.8831 2.53478 20.0984 8.67829 17.5684 13.731C15.0533 18.7541 8.5204 20.0162 4.38907 16.2771C-1.11074 11.2994 1.95911 2.28439 9.38622 1.60247C9.72786 1.5711 10.8564 1.61677 11.2605 1.67829ZM9.67919 5.36317C9.23887 5.56638 9.22997 5.60946 9.22997 7.53419V9.15653H7.60762C6.23165 9.15653 5.96329 9.16571 5.84059 9.217C5.26282 9.45837 5.18731 10.2485 5.7079 10.6054L5.84524 10.6995L7.53641 10.7104L9.22758 10.7214L9.23856 12.4126L9.2495 14.1038L9.34364 14.2411C9.67196 14.7201 10.3505 14.7201 10.6788 14.2411L10.7729 14.1038L10.7839 12.4126L10.7949 10.7214L12.486 10.7104L14.1772 10.6995L14.3145 10.6054C14.8351 10.2485 14.7596 9.45837 14.1818 9.217C14.0591 9.16571 13.7908 9.15653 12.4148 9.15653H10.7925L10.7916 7.52567C10.7908 6.02368 10.785 5.88247 10.7186 5.73857C10.5387 5.34868 10.0741 5.18091 9.67919 5.36317Z" fill="#8B9298"/>
</g>
<defs>
<clipPath id="clip0_576_5651">
<rect width="20" height="20" fill="white"/>
</clipPath>
</defs>
</svg>
