<svg width="48" height="48" viewBox="0 0 48 48" fill="none" xmlns="http://www.w3.org/2000/svg">
<g id="archive">
<path id="folders 1 (Traced)" fill-rule="evenodd" clip-rule="evenodd" d="M9.14948 7.28122C7.30219 7.5897 5.73126 8.93896 5.05087 10.8015L4.83189 11.401L4.80999 24.4161C4.78579 38.8161 4.7589 38.0308 5.31448 39.1765C5.96348 40.5147 7.16487 41.5178 8.67785 41.9847C9.14196 42.1279 9.83976 42.1347 24.0404 42.1347H38.9168L39.5699 41.9038C41.2055 41.3259 42.3548 40.1903 42.9483 38.5656L43.1672 37.966L43.1901 30.1669C43.2123 22.5825 43.2084 22.3498 43.0485 21.7175C42.6551 20.1618 41.6841 18.9429 40.286 18.2499L39.6934 17.9561V16.5553C39.6934 14.3707 39.376 13.4913 38.1422 12.2572C36.5942 10.7088 36.5789 10.7062 29.0492 10.7062H23.0085L20.4304 9.05887C19.0123 8.15288 17.718 7.36369 17.5542 7.30509C17.2057 7.1806 9.87679 7.15984 9.14948 7.28122ZM19.1671 12.484L21.8259 14.1801L28.3279 14.221C35.4154 14.2655 35.1015 14.2436 35.6189 14.7302C36.0527 15.1382 36.1311 15.4024 36.1641 16.5688L36.1945 17.6497L26.1531 17.6751C16.7555 17.6988 16.0803 17.7099 15.6214 17.8479C13.8826 18.3704 12.4535 19.7997 11.9331 21.5366C11.7967 21.9919 11.7843 22.6192 11.7599 30.3092L11.7336 38.5913L10.5985 38.5647C9.28762 38.5341 8.95012 38.3876 8.55099 37.6763L8.34665 37.3121V24.6835V12.0549L8.52982 11.7123C8.71717 11.3617 9.09276 11.0225 9.45257 10.8789C9.57322 10.8308 11.0337 10.7962 13.0814 10.7931L16.5083 10.788L19.1671 12.484Z" fill="#8B9298"/>
</g>
</svg>
