<svg width="24" height="24" viewBox="0 0 24 24" fill="none" xmlns="http://www.w3.org/2000/svg">
<g id="attach">
<path id="Layer 2" fill-rule="evenodd" clip-rule="evenodd" d="M15.2102 3.021C13.8944 3.126 12.8252 3.51785 11.7726 4.28093C11.4003 4.55074 3.22734 12.6995 2.91162 13.1156C1.7515 14.6444 1.69306 16.8122 2.76834 18.4283C4.15362 20.5102 6.99744 21.078 9.10916 19.6941C9.45843 19.4652 16.8587 12.1441 17.1845 11.7051C19.0145 9.23955 15.9772 6.08322 13.4133 7.78606C13.0317 8.03947 8.28764 12.8012 8.18135 13.0374C7.90841 13.6441 8.35175 14.3289 9.02134 14.3349C9.44144 14.3387 9.33272 14.4322 12.007 11.7682C14.1476 9.6357 14.513 9.28764 14.6733 9.22818C15.389 8.96282 16.0853 9.7227 15.7669 10.4214C15.6628 10.6496 8.35437 17.9572 8.02244 18.1649C5.64876 19.6499 2.86064 16.9999 4.20964 14.5409C4.4457 14.1106 12.6832 5.89072 13.1889 5.5809C16.8863 3.31554 21.3254 6.90532 19.8733 10.9866C19.5456 11.9078 19.5346 11.9202 15.0119 16.4555C10.7276 20.7517 10.8206 20.6499 10.8208 21.0455C10.8212 21.7433 11.5391 22.184 12.1632 21.8695C12.3923 21.754 20.2726 13.8781 20.6484 13.389C24.022 8.99825 20.6588 2.58622 15.2102 3.021Z" fill="#467CF4"/>
</g>
</svg>
