<svg width="20" height="20" viewBox="0 0 20 20" fill="none" xmlns="http://www.w3.org/2000/svg">
<g id="calendar">
<g clip-path="url(#clip0_252_4888)">
<path id="calendar (4) 1 (Traced)" fill-rule="evenodd" clip-rule="evenodd" d="M5.04908 0.133277C4.70448 0.293316 4.62937 0.451679 4.61287 1.05297L4.59935 1.54708L4.0031 1.57273C1.96715 1.6603 0.62567 2.67106 0.101138 4.51273L0.0152334 4.81421L0.00315674 10.5842C-0.00559784 14.7526 0.00343032 16.4405 0.0355956 16.6651C0.284476 18.4028 1.64437 19.731 3.41045 19.9613C3.99403 20.0374 16.6429 19.9908 16.9612 19.9114C18.5935 19.5042 19.7564 18.2387 19.9661 16.6413C19.996 16.4141 20.0054 14.5721 19.9972 10.5647L19.9854 4.81421L19.8995 4.51273C19.3529 2.5932 17.8863 1.56162 15.7006 1.5592L15.4016 1.55885L15.3879 1.05885C15.3483 -0.389101 13.8305 -0.334442 13.8305 1.11495V1.55885H10.0003H6.17021V1.11495C6.17021 0.254447 5.69121 -0.164969 5.04908 0.133277ZM4.60689 3.95776C4.60689 4.62727 4.61913 4.82646 4.66739 4.94162C4.90873 5.51788 5.66694 5.59133 6.03178 5.07379L6.15067 4.90521L6.1631 4.01176L6.17549 3.11831H10.003H13.8305L13.8307 3.92727C13.831 5.11878 13.9881 5.4185 14.6121 5.4185C15.2385 5.4185 15.3938 5.1272 15.3938 3.95211V3.10696L15.9703 3.12926C17.5482 3.19028 18.3906 4.02306 18.4339 5.5647L18.4506 6.15924H10.0003H1.55006L1.56628 5.5647C1.6095 3.97905 2.50216 3.14108 4.16721 3.12306L4.60689 3.11831V3.95776ZM18.4423 12.0594C18.4423 16.2705 18.4399 16.4093 18.3642 16.7046C18.149 17.5438 17.4628 18.2037 16.6199 18.3819C16.216 18.4672 3.78513 18.4669 3.37578 18.3815C2.54202 18.2077 1.85104 17.5415 1.63647 16.7046C1.56077 16.4093 1.55842 16.2705 1.55842 12.0594V7.7187H10.0003H18.4423V12.0594ZM4.31342 10.0916C3.68668 10.3756 3.68668 11.2216 4.31342 11.5056C4.55046 11.613 6.2302 11.6121 6.46333 11.5044C7.07733 11.2209 7.07733 10.3764 6.46333 10.0928C6.2302 9.98513 4.55046 9.9842 4.31342 10.0916ZM8.92521 10.0916C8.66038 10.2116 8.43745 10.5347 8.43745 10.7986C8.43745 11.4022 8.78732 11.5764 10.0018 11.5775C11.0458 11.5785 11.1444 11.5553 11.3855 11.2531C11.665 10.9028 11.5173 10.3224 11.0939 10.1066C10.8538 9.98424 9.18761 9.9727 8.92521 10.0916ZM13.5373 10.0928C13.1812 10.2573 13.007 10.6208 13.1045 10.9958C13.1639 11.2243 13.3148 11.4017 13.5373 11.5044C13.7536 11.6043 15.4259 11.6149 15.6588 11.5178C16.3077 11.2474 16.325 10.3806 15.6873 10.0916C15.4502 9.9842 13.7705 9.98513 13.5373 10.0928ZM4.31342 14.692C3.6757 14.981 3.69294 15.8478 4.34183 16.1182C4.51989 16.1924 6.12784 16.206 6.38517 16.1355C7.05071 15.9531 7.103 14.9886 6.46333 14.6932C6.2302 14.5855 4.55046 14.5846 4.31342 14.692ZM8.87405 14.7205C8.27866 15.0165 8.33177 15.8812 8.96007 16.1206C9.2274 16.2224 10.9423 16.1914 11.1296 16.0813C11.6859 15.7543 11.6548 14.9545 11.0755 14.692C10.7929 14.564 9.1461 14.5853 8.87405 14.7205ZM13.5373 14.6932C12.8919 14.9913 12.947 15.9499 13.6203 16.1363C13.872 16.206 15.4824 16.1917 15.6588 16.1182C16.3077 15.8478 16.325 14.981 15.6873 14.692C15.4502 14.5846 13.7705 14.5855 13.5373 14.6932Z" fill="white"/>
</g>
</g>
<defs>
<clipPath id="clip0_252_4888">
<rect width="20" height="20" rx="4" fill="white"/>
</clipPath>
</defs>
</svg>
