<svg width="20" height="20" viewBox="0 0 20 20" fill="none" xmlns="http://www.w3.org/2000/svg">
<g id="check">
<path id="check (4) 1 (Traced)" fill-rule="evenodd" clip-rule="evenodd" d="M14.4248 5.03241C14.1672 5.09765 14.2205 5.04732 11.1224 8.15044L8.15424 11.1234L7.05165 10.0172C5.73104 8.69229 5.71525 8.6806 5.28059 8.70584C4.9817 8.72317 4.84581 8.80267 4.4686 9.1808C4.05719 9.59322 4.0017 9.69838 4.0017 10.0657C4.0017 10.4945 3.86672 10.3324 6.00086 12.4668C8.05577 14.5219 7.90005 14.388 8.20668 14.3648C8.46124 14.3455 8.3135 14.4851 12.1831 10.6085C16.3719 6.41223 15.991 6.83596 15.991 6.37253C15.991 6.01154 15.951 5.93708 15.5266 5.50768C15.0719 5.0477 14.8102 4.9348 14.4248 5.03241Z" fill="#1DBA6F"/>
</g>
</svg>
