<svg width="20" height="20" viewBox="0 0 20 20" fill="none" xmlns="http://www.w3.org/2000/svg">
<g id="drop-d">
<path id="right-arrow (1) 1 (Traced)" fill-rule="evenodd" clip-rule="evenodd" d="M7.29685 15.4881C7.24534 15.4696 7.19887 15.4542 7.19358 15.454C7.16024 15.4528 6.59371 14.8637 6.55651 14.7916C6.4608 14.606 6.45905 14.3412 6.55228 14.1548C6.57171 14.1159 7.61097 13.0595 8.86174 11.8073L11.1359 9.53043L8.85045 7.24189C6.31724 4.70522 6.47565 4.88392 6.47909 4.56631C6.48152 4.34224 6.54251 4.24049 6.86813 3.91717C7.25646 3.53155 7.52308 3.44127 7.82362 3.59366C7.97524 3.67054 13.4094 9.12387 13.4703 9.2603C13.538 9.41182 13.5418 9.66221 13.4786 9.79966C13.4099 9.9492 7.96644 15.3938 7.81192 15.4676C7.67449 15.5332 7.44711 15.5423 7.29685 15.4881Z" fill="#F4B13E"/>
</g>
</svg>
