<svg width="20" height="20" viewBox="0 0 20 20" fill="none" xmlns="http://www.w3.org/2000/svg">
<path fill-rule="evenodd" clip-rule="evenodd" d="M12.2261 15.9647C12.2776 15.9461 12.3241 15.9308 12.3294 15.9306C12.3627 15.9294 12.9292 15.3403 12.9664 15.2681C13.0621 15.0826 13.0639 14.8178 12.9707 14.6313C12.9512 14.5925 11.912 13.5361 10.6612 12.2838L8.38708 10.007L10.6725 7.71846C13.2057 5.18178 13.0473 5.36048 13.0439 5.04288C13.0414 4.8188 12.9804 4.71705 12.6548 4.39373C12.2665 4.00811 11.9999 3.91783 11.6993 4.07022C11.5477 4.14711 6.11358 9.60044 6.05266 9.73686C5.98498 9.88838 5.98111 10.1388 6.0443 10.2762C6.11306 10.4258 11.5565 15.8704 11.711 15.9441C11.8485 16.0098 12.0758 16.0188 12.2261 15.9647Z" fill="#F4B13E"/>
</svg>
