<svg width="24" height="24" viewBox="0 0 24 24" fill="none" xmlns="http://www.w3.org/2000/svg">
<g id="close-btn-d" clip-path="url(#clip0_62_3774)">
<path id="close (3) 1 (Traced)" fill-rule="evenodd" clip-rule="evenodd" d="M0.683006 0.11499C0.101615 0.389789 -0.157604 1.06929 0.0999746 1.64349C0.173709 1.80788 1.31221 2.97212 5.26682 6.92718L10.3391 12L5.26682 17.0728C1.31221 21.0279 0.173709 22.1921 0.0999746 22.3565C-0.241369 23.1175 0.33435 23.9946 1.17519 23.9946C1.68472 23.9946 1.46029 24.1998 6.9291 18.7346L12.0033 13.6637L17.0775 18.7346C21.0337 22.6882 22.1983 23.8263 22.3627 23.9001C23.1239 24.2413 24.0013 23.6657 24.0013 22.8251C24.0013 22.3157 24.2065 22.5401 18.7398 17.0728L13.6675 12L18.7398 6.92718C24.2065 1.45988 24.0013 1.68426 24.0013 1.17487C24.0013 0.334257 23.1239 -0.241302 22.3627 0.0999469C22.1983 0.173661 21.0337 1.31185 17.0775 5.26536L12.0033 10.3363L6.9291 5.26536C2.97294 1.31185 1.80838 0.173661 1.64394 0.0999469C1.35051 -0.0315948 0.98099 -0.0258308 0.683006 0.11499Z" fill="#8B9298"/>
</g>
<defs>
<clipPath id="clip0_62_3774">
<rect width="24" height="24" fill="white"/>
</clipPath>
</defs>
</svg>
