<svg width="20" height="20" viewBox="0 0 20 20" fill="none" xmlns="http://www.w3.org/2000/svg">
<g id="copy">
<path id="copy (2) 1 (Traced)" fill-rule="evenodd" clip-rule="evenodd" d="M2.31663 0.0801704C1.85559 0.228967 1.54892 0.463131 1.28958 0.864409C0.977805 1.34679 0.992203 0.993866 1.00549 7.82019L1.01738 13.9151L1.14581 14.1229C1.50722 14.7074 2.35923 14.7074 2.72068 14.1229L2.84911 13.9151L2.87041 8.17529L2.89171 2.43544L3.02138 2.25073C3.09274 2.14914 3.23651 2.0181 3.34087 1.95953L3.53069 1.85304L8.34432 1.83174C13.6077 1.80843 13.2716 1.82552 13.5044 1.56954C13.9263 1.10569 13.8125 0.402641 13.2696 0.11902L13.0417 0L7.79634 0.00230036C2.89282 0.00443028 2.53567 0.00949946 2.31663 0.0801704ZM6.1154 3.66645C5.59714 3.76843 5.07523 4.17691 4.82432 4.67689L4.68085 4.96273L4.66969 11.7338C4.65725 19.2685 4.63591 18.7088 4.95476 19.2021C5.15229 19.5078 5.52724 19.805 5.86304 19.922C6.07514 19.996 6.36413 20 11.4966 20H16.9066L17.1409 19.9045C17.4809 19.7658 17.7757 19.5253 17.9821 19.2181C18.3167 18.7204 18.2934 19.3024 18.2809 11.7338L18.2698 4.96273L18.1263 4.67689C17.8669 4.16004 17.3554 3.76878 16.8018 3.66381C16.5224 3.61082 6.38539 3.61333 6.1154 3.66645ZM15.9272 5.57465C16.145 5.67361 16.3579 5.91553 16.4155 6.12984C16.5008 6.44639 16.4538 17.5005 16.3666 17.6597C16.2614 17.8515 16.0404 18.0523 15.8665 18.1141C15.6436 18.1932 7.30701 18.1932 7.08413 18.1141C6.88882 18.0447 6.67033 17.832 6.57099 17.6145C6.47872 17.4124 6.44575 6.44895 6.53644 6.12239C6.59459 5.91297 6.80865 5.6722 7.02339 5.57465C7.28826 5.45436 15.6624 5.45436 15.9272 5.57465Z" fill="#F4B13E"/>
</g>
</svg>
