<svg width="20" height="20" viewBox="0 0 20 20" fill="none" xmlns="http://www.w3.org/2000/svg">
<g id="Frame 104">
<path id="delete (1) 1 (Traced)" fill-rule="evenodd" clip-rule="evenodd" d="M7.02615 0.119018C6.86036 0.20562 6.76328 0.294607 6.66982 0.445658L6.54139 0.65328L6.52802 1.68977L6.5146 2.72626H4.62036C2.55568 2.72626 2.54793 2.72707 2.28834 2.97346C1.83621 3.40263 1.93022 4.1742 2.46934 4.45884L2.65711 4.55797H10.1835H17.7099L17.8977 4.45884C18.4368 4.1742 18.5308 3.40263 18.0787 2.97346C17.8191 2.72707 17.8113 2.72626 15.7467 2.72626H13.8524L13.839 1.68977L13.8256 0.65328L13.6976 0.443784C13.6016 0.286556 13.512 0.205066 13.3386 0.117144L13.1075 0H10.1807H7.25397L7.02615 0.119018ZM11.9726 2.27898V2.72626H10.1835H8.3944V2.27898V1.83171H10.1835H11.9726V2.27898ZM3.42012 5.54266C3.20487 5.64924 2.9993 5.88348 2.93847 6.09149C2.90946 6.19078 2.89936 8.05508 2.90822 11.6718L2.92156 17.103L3.01783 17.4146C3.32973 18.4241 3.99988 19.2155 4.9179 19.6583C5.67542 20.0237 5.30559 19.9997 10.1835 19.9997H14.5072L14.8388 19.9035C15.846 19.6116 16.674 18.9166 17.1094 17.9976C17.4743 17.2273 17.4464 17.7588 17.4464 11.5622V6.06397L17.3289 5.88642C16.9258 5.27715 16.0486 5.32192 15.7187 5.96859C15.6382 6.12642 15.636 6.26708 15.636 11.3002C15.636 17.3694 15.6578 17.1078 15.1062 17.6594C14.5629 18.2027 14.6326 18.1956 10.0131 18.1805L6.15801 18.168L5.90839 18.0737C5.40952 17.8853 5.03488 17.5088 4.84366 17.0037C4.75241 16.7626 4.75224 16.7541 4.73098 11.4162C4.71156 6.53868 4.70347 6.05899 4.63893 5.9424C4.39851 5.50807 3.85211 5.32886 3.42012 5.54266ZM7.92186 7.38335C7.8186 7.43784 7.67662 7.5641 7.60634 7.6639L7.47854 7.84528L7.46717 11.3266L7.4558 14.8079L7.55564 14.997C7.90938 15.667 8.92712 15.6078 9.2228 14.9C9.32282 14.6605 9.32282 8.08677 9.2228 7.84729C9.01483 7.3494 8.40087 7.13045 7.92186 7.38335ZM11.6105 7.3526C11.4096 7.46195 11.2445 7.63153 11.1588 7.8167C11.0472 8.05789 11.0336 14.6352 11.1442 14.9C11.4395 15.6069 12.4576 15.6671 12.8106 14.9984L12.9098 14.8106V11.3736V7.93661L12.8106 7.74884C12.6018 7.35332 11.984 7.14932 11.6105 7.3526Z" fill="#E94410"/>
</g>
</svg>
