<svg width="48" height="48" viewBox="0 0 48 48" fill="none" xmlns="http://www.w3.org/2000/svg">
<g id="done">
<path id="check (3) 1 (Traced)" fill-rule="evenodd" clip-rule="evenodd" d="M21.6644 2.10521C4.08318 4.0748 -4.21904 24.9429 7.24893 38.3388C20.4877 53.8034 45.9427 44.4648 45.9832 24.1286C46.0095 10.9681 34.62 0.65377 21.6644 2.10521ZM26.5631 6.27877C38.4996 7.91668 45.4303 20.9828 40.1338 31.863C33.5859 45.3138 14.3123 45.2768 7.83299 31.801C1.63124 18.9027 12.329 4.32558 26.5631 6.27877ZM33.144 17.1924C32.9377 17.2963 30.3643 19.5906 27.4252 22.2912L22.0815 27.2011L19.5502 24.6901C16.9023 22.0632 16.7845 21.9734 15.9877 21.9734C14.5443 21.9734 13.5531 23.502 14.1171 24.8581C14.2987 25.295 20.3893 31.4338 21.0034 31.7989C21.5519 32.1251 22.3635 32.1425 22.9252 31.8402C23.5254 31.5171 35.543 20.4474 35.7924 19.9877C36.699 18.3175 34.8294 16.3442 33.144 17.1924Z" fill="#1DBA6F"/>
</g>
</svg>
