<svg width="24" height="24" viewBox="0 0 24 24" fill="none" xmlns="http://www.w3.org/2000/svg">
<g clip-path="url(#clip0_152_3059)">
<path fill-rule="evenodd" clip-rule="evenodd" d="M20.2734 0.0698533C19.8663 0.157322 19.2623 0.461447 18.965 0.728822C18.6241 1.03524 8.0385 12.6271 7.91016 12.8344C7.70077 13.1726 6.49214 16.9171 6.49247 17.2267C6.49331 18.1436 7.27556 18.8287 8.12653 18.6578C8.44181 18.5945 12.1049 17.0011 12.3282 16.8302C12.4497 16.7371 21.8519 6.46871 23.1714 4.98793C25.0635 2.86454 23.0637 -0.529397 20.2734 0.0698533ZM21.2817 2.14688C21.7895 2.3776 22.0165 3.04721 21.7332 3.47898C21.6867 3.54995 19.5977 5.85362 17.091 8.59824L12.5335 13.5885L11.8328 12.9473L11.132 12.3061L11.3129 12.1164C11.4123 12.012 13.488 9.74134 15.9255 7.07035C19.4132 3.24859 20.3957 2.19812 20.538 2.1392C20.7783 2.03963 21.0518 2.04245 21.2817 2.14688ZM4.25522 2.24949C2.24653 2.44721 0.561469 3.96067 0.132188 5.95271C0.0518906 6.32523 0.046875 6.75006 0.046875 13.1688V19.9892L0.171516 20.44C0.689391 22.3133 2.1233 23.625 3.98438 23.9279C4.61414 24.0304 17.3234 24.0304 17.9531 23.9279C19.8078 23.626 21.2536 22.3083 21.7608 20.4575L21.8892 19.9892L21.9038 15.2313C21.9201 9.97618 21.9315 10.1937 21.6201 9.85571C21.1322 9.32645 20.3103 9.44565 19.9527 10.0975C19.8822 10.2259 19.8728 10.6847 19.8516 15.0204L19.8281 19.8017L19.7234 20.1097C19.4567 20.8937 18.8209 21.5302 18.0323 21.8027L17.7188 21.911H10.9688H4.21875L3.90516 21.8027C3.12169 21.5319 2.47903 20.8885 2.21414 20.1097L2.10938 19.8017L2.09672 13.2524C2.08598 7.71062 2.09438 6.65363 2.15123 6.38082C2.34389 5.45701 3.0233 4.70987 3.96094 4.39079L4.26562 4.2871L9.1875 4.2631C13.6585 4.24135 14.1223 4.23203 14.25 4.16129C14.99 3.75165 14.964 2.73531 14.2031 2.32468L14.0156 2.22353L9.32812 2.21753C6.75 2.21424 4.46719 2.22863 4.25522 2.24949ZM10.8708 14.8617L11.1527 15.1249L11.0109 15.1982C10.6747 15.3721 9.01219 16.0794 8.99058 16.0578C8.96709 16.0344 9.60492 14.0679 9.68897 13.9047C9.73388 13.8175 9.87197 13.9293 10.8708 14.8617Z" fill="#8B9298"/>
</g>
<defs>
<clipPath id="clip0_152_3059">
<rect width="24" height="24" fill="white"/>
</clipPath>
</defs>
</svg>
