<svg width="20" height="20" viewBox="0 0 20 20" fill="none" xmlns="http://www.w3.org/2000/svg">
<g id="eye_on_see_show_view_vision_watch_icon_123215 1" clip-path="url(#clip0_945_22161)">
<g id="Layer 2">
<path id="Vector" d="M10 16.8388C8.92433 16.8412 7.85884 16.6304 6.8651 16.2187C5.87135 15.8069 4.96903 15.2023 4.21027 14.4399L0.227436 10.4647C0.155369 10.3932 0.0981682 10.3082 0.0591328 10.2145C0.0200974 10.1208 0 10.0203 0 9.91881C0 9.81731 0.0200974 9.71681 0.0591328 9.62312C0.0981682 9.52942 0.155369 9.44438 0.227436 9.3729L4.21027 5.39775C5.7459 3.8624 7.82849 2.99988 10 2.99988C12.1715 2.99988 14.2541 3.8624 15.7897 5.39775L19.7726 9.3729C19.8446 9.44438 19.9018 9.52942 19.9409 9.62312C19.9799 9.71681 20 9.81731 20 9.91881C20 10.0203 19.9799 10.1208 19.9409 10.2145C19.9018 10.3082 19.8446 10.3932 19.7726 10.4647L15.7897 14.4399C15.031 15.2023 14.1287 15.8069 13.1349 16.2187C12.1412 16.6304 11.0757 16.8412 10 16.8388ZM1.85748 9.91881L5.29441 13.3557C6.5439 14.6009 8.23599 15.3001 10 15.3001C11.764 15.3001 13.4561 14.6009 14.7056 13.3557L18.1425 9.91881L14.7056 6.48188C13.4561 5.2367 11.764 4.53753 10 4.53753C8.23599 4.53753 6.5439 5.2367 5.29441 6.48188L1.85748 9.91881Z" fill="#8B9298"/>
<path id="Vector_2" d="M10.0004 12.9942C9.39207 12.9942 8.79745 12.8138 8.29167 12.4759C7.7859 12.1379 7.3917 11.6576 7.15892 11.0956C6.92614 10.5336 6.86523 9.91525 6.9839 9.31865C7.10257 8.72205 7.39549 8.17404 7.82561 7.74392C8.25574 7.3138 8.80375 7.02088 9.40035 6.90221C9.99695 6.78354 10.6153 6.84444 11.1773 7.07722C11.7393 7.31 12.2196 7.70421 12.5576 8.20998C12.8955 8.71575 13.0759 9.31038 13.0759 9.91866C13.0759 10.7343 12.7519 11.5166 12.1751 12.0934C11.5983 12.6702 10.816 12.9942 10.0004 12.9942ZM10.0004 8.38089C9.69621 8.38089 9.3989 8.47108 9.14602 8.64005C8.89313 8.80902 8.69603 9.04919 8.57964 9.33018C8.46325 9.61117 8.43279 9.92037 8.49213 10.2187C8.55147 10.517 8.69792 10.791 8.91299 11.006C9.12805 11.2211 9.40205 11.3676 9.70035 11.4269C9.99865 11.4862 10.3078 11.4558 10.5888 11.3394C10.8698 11.223 11.11 11.0259 11.279 10.773C11.4479 10.5201 11.5381 10.2228 11.5381 9.91866C11.5381 9.51082 11.3761 9.11968 11.0877 8.83129C10.7993 8.5429 10.4082 8.38089 10.0004 8.38089Z" fill="#8B9298"/>
</g>
</g>
<defs>
<clipPath id="clip0_945_22161">
<rect width="20" height="20" fill="white"/>
</clipPath>
</defs>
</svg>
