<svg width="24" height="24" viewBox="0 0 24 24" fill="none" xmlns="http://www.w3.org/2000/svg">
<g id="file">
<path id="file (2) 1 (Traced)" fill-rule="evenodd" clip-rule="evenodd" d="M5.83152 1.44232C4.71857 1.58768 3.73631 2.46973 3.42173 3.60621C3.29573 4.06137 3.29751 19.912 3.4236 20.3684C3.69993 21.3685 4.52648 22.195 5.52656 22.4713C5.98752 22.5987 17.9915 22.5987 18.4524 22.4713C19.4525 22.195 20.2791 21.3685 20.5554 20.3684C20.6866 19.8932 20.6826 7.49768 20.5511 7.2492C20.4313 7.02289 15.1114 1.6955 14.8489 1.53903L14.6379 1.41326L10.3957 1.40675C8.06254 1.40318 6.00866 1.41921 5.83152 1.44232ZM12.9372 5.87811C12.9521 8.70631 12.9424 8.62873 13.3133 8.90407C13.605 9.12068 13.6518 9.1242 16.2387 9.1242H18.6926V14.5075V19.8907L18.5835 20.0973C18.5236 20.2109 18.3846 20.3672 18.2748 20.4445L18.0752 20.5851H11.9895H5.90381L5.70417 20.4445C5.59434 20.3672 5.4554 20.2109 5.39545 20.0973L5.28637 19.8907V11.991V4.09128L5.3849 3.88775C5.49079 3.66898 5.71504 3.47009 5.92785 3.40625C6.00042 3.38445 7.60424 3.36481 9.49185 3.36261L12.9239 3.35857L12.9372 5.87811ZM16.3489 5.72576L17.778 7.15545H16.3369H14.8957V5.72576C14.8957 4.93943 14.9011 4.29607 14.9077 4.29607C14.9144 4.29607 15.5629 4.93943 16.3489 5.72576ZM7.74398 8.22856C7.01662 8.55893 7.00617 9.60181 7.72654 9.96931C8.00048 10.1091 10.2107 10.1102 10.4841 9.97072C11.2288 9.59079 11.2185 8.56887 10.4665 8.22725C10.1818 8.09792 8.02935 8.09895 7.74398 8.22856ZM7.74398 12.0723C7.00982 12.4058 7.00982 13.4832 7.74398 13.8167C8.03999 13.9512 15.939 13.9512 16.235 13.8167C16.9692 13.4832 16.9692 12.4058 16.235 12.0723C15.939 11.9379 8.03999 11.9379 7.74398 12.0723ZM7.74731 15.905C7.00448 16.2953 7.00256 17.3237 7.74398 17.6605C8.03999 17.7949 15.939 17.7949 16.235 17.6605C16.9808 17.3217 16.9732 16.2811 16.2223 15.9029C15.9965 15.7891 7.96396 15.7911 7.74731 15.905Z" fill="black"/>
</g>
</svg>
