<svg width="24" height="24" viewBox="0 0 24 24" fill="none" xmlns="http://www.w3.org/2000/svg">
<path fill-rule="evenodd" clip-rule="evenodd" d="M7.30869 2.02382C7.21411 2.03381 6.67244 2.08953 6.10497 2.14772C5.53751 2.20586 4.91123 2.28291 4.7133 2.319C2.88812 2.65145 1.42561 4.09434 1.07812 5.90542C0.965702 6.49118 0.978341 17.2448 1.09209 17.7867C1.44422 19.4647 2.77553 20.8584 4.42028 21.2709C4.95048 21.4039 6.34743 21.5598 8.27583 21.7014C11.6158 21.9465 17.8463 21.7093 19.6237 21.2692C21.1973 20.8797 22.4557 19.6319 22.9003 18.0205L23 17.6592V12.0915V6.52377L22.9043 6.18091C22.444 4.53053 21.2655 3.35846 19.5857 2.88045C19.2628 2.78856 19.2194 2.78749 14.8319 2.76442L10.404 2.74112L10.189 2.61205C9.42878 2.15558 8.28172 1.92131 7.30869 2.02382ZM8.80224 4.00398C9.37581 4.21704 9.52576 4.33881 11.0703 5.84591C12.8171 7.55036 13.0879 7.74548 14.1441 8.05987L14.531 8.17505L16.702 8.20472C19.1013 8.23748 19.1168 8.23914 19.6694 8.52531C20.3308 8.86787 20.7747 9.38052 21.0315 10.0986L21.1514 10.4339L21.1637 13.7449C21.1785 17.7529 21.1792 17.7474 20.6007 18.5173C19.9282 19.4125 19.3071 19.5865 15.9282 19.826C11.5042 20.1395 5.64025 19.8643 4.40687 19.2853C3.74809 18.976 3.18983 18.3159 2.95983 17.5742C2.8371 17.1785 2.8371 6.45199 2.95983 6.05626C3.23639 5.16453 3.95767 4.4448 4.82822 4.19192C5.02709 4.13416 5.62722 4.05655 6.98626 3.91281C7.66791 3.84073 8.47131 3.88106 8.80224 4.00398ZM18.9715 4.6568C20.0499 4.87437 20.8814 5.69843 21.1056 6.77198C21.2143 7.29203 21.2141 7.2925 20.9324 7.11434C20.5355 6.86336 20.0165 6.63696 19.5608 6.51604L19.1309 6.40196L17.0029 6.37693L14.8749 6.3519L14.5314 6.23285C14.0042 6.05005 13.7276 5.85709 13.0492 5.19895L12.4245 4.5928L15.5323 4.59139C18.1939 4.59016 18.6877 4.59955 18.9715 4.6568ZM4.4496 15.4674C3.61603 15.7199 3.49669 16.781 4.25641 17.1852L4.42837 17.2767H12.0161H19.6038L19.7758 17.1852C20.4485 16.8272 20.4485 15.8986 19.7758 15.5406L19.6038 15.4491L12.0806 15.4419C7.94279 15.4379 4.50884 15.4494 4.4496 15.4674Z" fill="#8B9298"/>
</svg>
