<svg width="24" height="24" viewBox="0 0 24 24" fill="none" xmlns="http://www.w3.org/2000/svg">
<path fill-rule="evenodd" clip-rule="evenodd" d="M2.58373 2.07259C2.37517 2.16707 2.1022 2.46566 2.04501 2.66186C1.95529 2.9698 2.01248 18.4933 2.10483 18.899C2.46917 20.4997 3.65064 21.6437 5.24064 21.9354C5.53042 21.9885 6.98975 22 13.4805 22H21.3683L21.5488 21.8752C22.1505 21.4592 22.1504 20.5988 21.5486 20.1911L21.3753 20.0736L13.6014 20.0483C7.47725 20.0283 5.76814 20.0099 5.5477 19.9618C4.78118 19.7946 4.22833 19.2414 4.06123 18.4743C4.0132 18.2537 3.99484 16.5433 3.97484 10.4144L3.94949 2.63442L3.82112 2.45053C3.55087 2.06333 2.98549 1.89062 2.58373 2.07259ZM6.64964 6.06371C5.86434 6.31395 5.78701 7.4955 6.5309 7.87866L6.76392 7.99871L9.864 8.01351C13.4189 8.03042 13.3541 8.03578 13.6922 7.69744C14.188 7.20129 14.0703 6.4339 13.451 6.12512L13.2039 6.00188L10.0087 6.00667C7.80736 6.00996 6.76256 6.02772 6.64964 6.06371ZM8.77793 10.04C7.81375 10.2735 7.75586 11.7031 8.69995 11.9655C8.94944 12.0348 18.0586 12.0348 18.3081 11.9655C19.1232 11.739 19.2332 10.5601 18.4788 10.1365L18.2696 10.019L13.5979 10.0116C11.0285 10.0074 8.85953 10.0202 8.77793 10.04ZM15.5929 14.1238C14.8267 14.4721 14.8267 15.5735 15.5929 15.9219C15.8816 16.0531 20.1411 16.0531 20.4297 15.9219C21.196 15.5735 21.196 14.4721 20.4297 14.1238C20.1411 13.9926 15.8816 13.9926 15.5929 14.1238Z" fill="black"/>
</svg>
