<svg width="24" height="24" viewBox="0 0 24 24" fill="none" xmlns="http://www.w3.org/2000/svg">
<path fill-rule="evenodd" clip-rule="evenodd" d="M6.95363 2.06149C4.78445 2.45781 2.99665 4.00665 2.29907 6.0939C1.97821 7.05386 1.99193 6.66515 2.00546 14.4072L2.01768 21.3955L2.13514 21.5692C2.19974 21.6647 2.33539 21.8007 2.43655 21.8714L2.62044 22H9.78961H16.9587L17.4051 21.8761C19.7791 21.2169 21.3492 19.6001 21.8982 17.2494C22.0339 16.668 22.0339 7.34186 21.8982 6.76045C21.3541 4.43058 19.7573 2.77446 17.4474 2.14437L16.9587 2.01107L12.1428 2.00218C8.11048 1.99475 7.26617 2.00439 6.95363 2.06149ZM16.9866 4.08863C18.4617 4.50523 19.5033 5.5537 19.9056 7.02681L20.0127 7.41895V11.9814C20.0127 16.5247 20.0123 16.5456 19.9096 16.9482C19.5139 18.4996 18.3065 19.658 16.7708 19.9599C16.5019 20.0127 15.306 20.0245 10.2165 20.0245H3.99103V13.7217V7.41895L4.0981 7.02681C4.54436 5.39289 5.8448 4.22753 7.46458 4.01004C8.19444 3.91206 16.6072 3.98144 16.9866 4.08863ZM11.0152 10.0059V14.0275H12.0019H12.9885V10.0059V5.98436H12.0019H11.0152V10.0059ZM11.0152 17.0142V18.0255H12.0019H12.9885V17.0142V16.003H12.0019H11.0152V17.0142Z" fill="black"/>
</svg>
