<svg width="24" height="24" viewBox="0 0 24 24" fill="none" xmlns="http://www.w3.org/2000/svg">
<path fill-rule="evenodd" clip-rule="evenodd" d="M2.64138 4.10093C1.51658 4.62731 1.9743 6.28819 3.21577 6.18523C4.22708 6.10135 4.56245 4.78345 3.7225 4.19373C3.43415 3.9913 2.96225 3.95079 2.64138 4.10093ZM7.15284 4.0646C6.33103 4.39256 6.20659 5.50047 6.9342 6.01137L7.16024 6.17006L14.1284 6.18439C21.9081 6.20035 21.3595 6.22584 21.7154 5.83182C22.214 5.27995 22.0342 4.41107 21.3577 4.1038C21.1164 3.99417 7.42393 3.95637 7.15284 4.0646ZM2.64138 10.7738C1.51658 11.3002 1.9743 12.9611 3.21577 12.8581C4.22708 12.7743 4.56245 11.4564 3.7225 10.8666C3.43415 10.6642 2.96225 10.6237 2.64138 10.7738ZM7.15284 10.7375C6.33103 11.0655 6.20659 12.1734 6.9342 12.6843L7.16024 12.843L14.1284 12.8573C21.9081 12.8733 21.3595 12.8987 21.7154 12.5047C22.214 11.9529 22.0342 11.084 21.3577 10.7767C21.1164 10.6671 7.42393 10.6293 7.15284 10.7375ZM2.64138 17.4468C1.51658 17.9731 1.9743 19.634 3.21577 19.531C4.22708 19.4472 4.56245 18.1293 3.7225 17.5395C3.43415 17.3371 2.96225 17.2966 2.64138 17.4468ZM7.15284 17.4104C6.33103 17.7384 6.20659 18.8463 6.9342 19.3572L7.16024 19.5159L14.1284 19.5302C21.9081 19.5462 21.3595 19.5717 21.7154 19.1776C22.214 18.6258 22.0342 17.7569 21.3577 17.4496C21.1164 17.34 7.42393 17.3022 7.15284 17.4104Z" fill="black"/>
</svg>
