<svg width="24" height="24" viewBox="0 0 24 24" fill="none" xmlns="http://www.w3.org/2000/svg">
<path fill-rule="evenodd" clip-rule="evenodd" d="M2.89757 1.07253C2.02761 1.30201 1.29621 2.04033 1.07312 2.91411C0.975626 3.29598 0.975626 8.84938 1.07312 9.23125C1.2987 10.1149 2.03371 10.8499 2.91733 11.0755C3.2992 11.1729 8.85259 11.1729 9.23446 11.0755C10.1181 10.8499 10.8531 10.1149 11.0787 9.23125C11.1762 8.84938 11.1762 3.29598 11.0787 2.91411C10.8531 2.03049 10.1181 1.29548 9.23446 1.06991C8.86324 0.975117 3.25792 0.977436 2.89757 1.07253ZM14.8041 1.06677C13.8999 1.28573 13.0942 2.11382 12.9089 3.01457C12.8779 3.16537 12.8621 4.19755 12.8621 6.07268C12.8621 7.94781 12.8779 8.97999 12.9089 9.13079C13.0988 10.0539 13.949 10.9041 14.8721 11.094C15.1863 11.1586 20.6741 11.1586 20.9883 11.094C21.9114 10.9041 22.7616 10.0539 22.9515 9.13079C23.0162 8.81661 23.0162 3.32875 22.9515 3.01457C22.7616 2.09144 21.9114 1.24124 20.9883 1.05135C20.6426 0.980271 15.1044 0.994058 14.8041 1.06677ZM8.93647 2.817C9.41413 3.07865 9.40455 3.01208 9.40455 6.07268C9.40455 9.13328 9.41413 9.06671 8.93647 9.32836C8.73242 9.44012 3.41937 9.44012 3.21532 9.32836C3.04351 9.23426 2.82202 8.98141 2.78006 8.83147C2.70459 8.5617 2.74179 3.35534 2.82021 3.2121C2.91166 3.04515 3.16906 2.81623 3.29563 2.78925C3.34838 2.77804 3.43015 2.76026 3.4774 2.74974C3.76839 2.68506 8.80896 2.74716 8.93647 2.817ZM20.7864 2.83611C21.2782 3.09966 21.2588 2.96715 21.2588 6.07268C21.2588 9.80232 21.6598 9.40133 17.9302 9.40133C14.2006 9.40133 14.6015 9.80232 14.6015 6.07268C14.6015 2.34227 14.2049 2.72728 18.0376 2.73728C20.5836 2.74394 20.6167 2.74514 20.7864 2.83611ZM2.89757 12.9268C2.02761 13.1563 1.29621 13.8946 1.07312 14.7684C0.975626 15.1503 0.975626 20.7037 1.07312 21.0855C1.2987 21.9692 2.03371 22.7042 2.91733 22.9298C3.2992 23.0272 8.85259 23.0272 9.23446 22.9298C10.1181 22.7042 10.8531 21.9692 11.0787 21.0855C11.1762 20.7037 11.1762 15.1503 11.0787 14.7684C10.8531 13.8848 10.1181 13.1498 9.23446 12.9242C8.86324 12.8294 3.25792 12.8317 2.89757 12.9268ZM14.8041 12.9211C13.8999 13.14 13.0942 13.9681 12.9089 14.8689C12.8779 15.0197 12.8621 16.0519 12.8621 17.927C12.8621 19.8021 12.8779 20.8343 12.9089 20.9851C13.0988 21.9082 13.949 22.7584 14.8721 22.9483C15.1863 23.0129 20.6741 23.0129 20.9883 22.9483C21.9114 22.7584 22.7616 21.9082 22.9515 20.9851C23.0162 20.6709 23.0162 15.1831 22.9515 14.8689C22.7616 13.9457 21.9114 13.0955 20.9883 12.9057C20.6426 12.8346 15.1044 12.8484 14.8041 12.9211ZM8.93647 14.6713C9.41413 14.933 9.40455 14.8664 9.40455 17.927C9.40455 20.9876 9.41413 20.921 8.93647 21.1827C8.73242 21.2944 3.41937 21.2944 3.21532 21.1827C3.04351 21.0886 2.82202 20.8357 2.78006 20.6858C2.70459 20.416 2.74179 15.2096 2.82021 15.0664C2.91166 14.8995 3.16906 14.6705 3.29563 14.6436C3.34838 14.6323 3.43015 14.6146 3.4774 14.604C3.76839 14.5394 8.80896 14.6015 8.93647 14.6713ZM20.7864 14.6904C21.2782 14.954 21.2588 14.8215 21.2588 17.927C21.2588 21.6566 21.6598 21.2556 17.9302 21.2556C14.2006 21.2556 14.6015 21.6566 14.6015 17.927C14.6015 14.1966 14.2049 14.5816 18.0376 14.5916C20.5836 14.5982 20.6167 14.5994 20.7864 14.6904Z" fill="black"/>
</svg>
