<svg width="24" height="24" viewBox="0 0 24 24" fill="none" xmlns="http://www.w3.org/2000/svg">
<path fill-rule="evenodd" clip-rule="evenodd" d="M15.7662 2.1164C15.2221 2.3072 15.1055 2.41829 8.46312 9.07358C2.93472 14.6128 2.11651 15.4522 2.06391 15.6394C1.97643 15.9505 1.97977 20.4941 2.06771 20.7883C2.15045 21.0653 2.48858 21.4034 2.76555 21.4862C3.07793 21.5795 20.948 21.5795 21.2604 21.4862C22.1609 21.2171 22.2673 19.902 21.4237 19.4679L21.165 19.3347L15.7175 19.3207L10.2701 19.3067L15.6966 13.8729C19.094 10.4709 21.1727 8.35134 21.2558 8.20449C21.6279 7.54674 21.6506 6.80828 21.3191 6.1338C21.0126 5.50999 18.0391 2.53715 17.417 2.23255C16.8786 1.96891 16.3022 1.92836 15.7662 2.1164ZM19.2594 7.15825C19.2342 7.20324 18.5963 7.85583 17.8416 8.60851L16.4695 9.97698L15.0227 8.52948L13.576 7.08203L15.011 5.65048L16.4461 4.21894L17.8755 5.64772C18.9918 6.76345 19.295 7.09439 19.2594 7.15825ZM13.4728 10.1074L14.9058 11.5411L11.0223 15.4249L7.13886 19.3086H5.69209H4.24527V17.8621V16.4156L8.11592 12.5446C10.2448 10.4156 11.9986 8.67368 12.0132 8.67368C12.0278 8.67368 12.6846 9.31886 13.4728 10.1074Z" fill="black"/>
</svg>
