<svg width="20" height="20" viewBox="0 0 20 20" fill="none" xmlns="http://www.w3.org/2000/svg">
<path fill-rule="evenodd" clip-rule="evenodd" d="M9.65703 4.06557C9.48965 4.14162 9.32215 4.30912 9.2461 4.4765C9.19027 4.59942 9.18652 4.75027 9.18583 6.89743L9.18511 9.18726L6.89529 9.18797C4.74813 9.18866 4.59728 9.19241 4.47436 9.24824C3.84188 9.53557 3.84188 10.4687 4.47436 10.756C4.59728 10.8119 4.74813 10.8156 6.89529 10.8163L9.18511 10.817L9.18583 13.1069C9.18652 15.254 9.19027 15.4049 9.2461 15.5278C9.53343 16.1603 10.4666 16.1603 10.7539 15.5278C10.8097 15.4049 10.8135 15.254 10.8142 13.1069L10.8149 10.817L13.1047 10.8163C15.2519 10.8156 15.4027 10.8119 15.5256 10.756C16.1581 10.4687 16.1581 9.53557 15.5256 9.24824C15.4027 9.19241 15.2519 9.18866 13.1047 9.18797L10.8149 9.18726L10.8142 6.89743C10.8134 4.34185 10.825 4.47601 10.5842 4.23526C10.3565 4.00749 9.94902 3.93294 9.65703 4.06557Z" fill="black"/>
</svg>
