<svg width="24" height="24" viewBox="0 0 24 24" fill="none" xmlns="http://www.w3.org/2000/svg">
<path fill-rule="evenodd" clip-rule="evenodd" d="M10.0341 1.07695C8.8402 1.39467 7.96077 2.52834 7.95613 3.75562C7.95379 4.37686 7.40352 4.64508 6.75102 4.34302C5.56509 3.79397 4.39799 3.97748 3.52298 4.85048C3.17423 5.19848 1.78195 7.50811 1.61043 8.02327C1.18884 9.28936 1.63991 10.5732 2.76993 11.3235C3.35081 11.7092 3.34827 12.2942 2.76398 12.6821C1.64123 13.4276 1.18846 14.7127 1.60659 15.9671C1.78166 16.4924 3.17043 18.7995 3.52298 19.1507C4.39832 20.0228 5.59776 20.2094 6.76504 19.655C7.39855 19.3542 7.95384 19.6297 7.95613 20.2461C7.96049 21.4032 8.7982 22.5429 9.89868 22.8892C10.4072 23.0492 13.566 23.0492 14.0745 22.8892C15.175 22.5429 16.0127 21.4032 16.017 20.2461C16.0193 19.6297 16.5746 19.3542 17.2081 19.655C18.3755 20.2094 19.5752 20.0228 20.45 19.1507C20.8051 18.7967 22.1564 16.5594 22.3531 15.9996C22.7946 14.7433 22.3437 13.4354 21.2092 12.6821C20.5944 12.2739 20.62 11.7203 21.2741 11.2733C22.3565 10.5337 22.7856 9.23269 22.3531 8.00208C22.1566 7.44314 20.8052 5.20505 20.45 4.85048C19.5755 3.97753 18.4081 3.79397 17.2221 4.34302C16.5696 4.64508 16.0194 4.37686 16.017 3.75562C16.0127 2.61183 15.1919 1.48153 14.0993 1.11483C13.6482 0.963422 10.5685 0.934734 10.0341 1.07695ZM13.5754 3.11803C13.8419 3.27502 13.9135 3.41498 13.9621 3.87394C14.1847 5.97961 16.1892 7.1452 18.0083 6.22692C18.6063 5.92514 18.9003 6.04172 19.3155 6.74541C20.6998 9.09141 20.7232 9.18708 20.0256 9.64472C18.3126 10.7685 18.2936 13.1663 19.9884 14.3275C20.6706 14.7948 20.6589 14.9311 19.8111 16.4071C18.885 18.0193 18.727 18.1373 17.9922 17.7666C16.1854 16.8549 14.1809 18.0292 13.9616 20.1278C13.8752 20.9538 13.8204 20.9774 11.9866 20.9774C10.1528 20.9774 10.0979 20.9538 10.0116 20.1278C9.79232 18.0292 7.78781 16.8549 5.98096 17.7666C5.24615 18.1373 5.08818 18.0193 4.16212 16.4071C3.31781 14.9373 3.3037 14.7822 3.97354 14.3389C5.67534 13.2128 5.66652 10.8202 3.95624 9.6487C3.29662 9.19687 3.31213 9.07031 4.21912 7.50384C5.11152 5.9625 5.24606 5.86411 5.96484 6.22692C7.78138 7.14384 9.78857 5.97937 10.0104 3.87984C10.0991 3.0413 10.1891 3.0037 12.0803 3.01575C13.3233 3.02367 13.4273 3.0308 13.5754 3.11803ZM11.1116 7.05159C7.5592 7.72828 5.83026 11.7371 7.79146 14.75C9.74648 17.7534 14.2267 17.7534 16.1817 14.75C17.691 12.4314 17.0401 9.30572 14.7358 7.80572C13.6965 7.12922 12.2664 6.83161 11.1116 7.05159ZM12.7131 9.1223C14.0087 9.43097 14.9454 10.6389 14.9454 12.0008C14.9454 14.6463 11.7776 15.9558 9.89727 14.0876C7.77074 11.9749 9.78426 8.42447 12.7131 9.1223Z" fill="#8B9298"/>
</svg>
