<svg width="24" height="24" viewBox="0 0 24 24" fill="none" xmlns="http://www.w3.org/2000/svg">
<g id="Frame 116">
<g id="Group 90">
<path id="send (1) 1 (Traced)" fill-rule="evenodd" clip-rule="evenodd" d="M2.7511 2.07078C2.32079 2.20821 2 2.68211 2 3.18035C2 3.38315 3.71172 10.284 3.80834 10.4707C3.90755 10.6625 3.94702 10.6686 7.89057 11.1065C12.0712 11.5707 11.8413 11.5281 11.9582 11.8603C12.009 12.0045 12.0081 12.0474 11.9511 12.1829C11.8271 12.4783 11.9957 12.4483 7.88499 12.9048C3.94714 13.342 3.90755 13.3482 3.80834 13.5399C3.71172 13.7267 2 20.6275 2 20.8303C2 21.5305 2.57861 22.0711 3.24382 21.9924C3.57117 21.9536 21.3106 13.2931 21.5612 13.0497C22.1463 12.4812 22.1463 11.5294 21.5612 10.961C21.4098 10.814 19.9228 10.0747 12.4107 6.41163C2.5422 1.59948 3.24208 1.914 2.7511 2.07078Z" fill="#8B9298"/>
</g>
</g>
</svg>
