<svg width="24" height="24" viewBox="0 0 24 24" fill="none" xmlns="http://www.w3.org/2000/svg">
<path fill-rule="evenodd" clip-rule="evenodd" d="M5.42103 2.03483C3.83831 2.26894 2.52384 3.45528 2.10585 5.02683L2 5.42483V11.9566C2 17.2387 2.01204 18.5466 2.06286 18.7927C2.38478 20.3511 3.64941 21.6154 5.20843 21.9372C5.45461 21.988 6.7629 22 12.0468 22H18.5808L18.9789 21.8942C20.4063 21.5148 21.5133 20.407 21.8949 18.9758L22 18.582V12.0034V5.42483L21.8949 5.03095C21.5164 3.61167 20.4295 2.51532 19.0023 2.11325L18.6276 2.00767L12.1639 2.0006C8.6089 1.99671 5.57461 2.01212 5.42103 2.03483ZM18.802 4.2161C19.2397 4.42334 19.5512 4.72909 19.7646 5.16065L19.9391 5.5136V12.001V18.4883L19.7899 18.8031C19.5826 19.2406 19.2768 19.5521 18.8451 19.7653L18.492 19.9398H12.0024H5.51288L5.19799 19.7907C4.76033 19.5834 4.44876 19.2777 4.23541 18.8461L4.06089 18.4932V12.0058V5.51847L4.20913 5.2057C4.46014 4.67604 4.85672 4.32248 5.41859 4.12742C5.63789 4.05133 6.07696 4.04665 12.0703 4.05644L18.4871 4.06697L18.802 4.2161ZM14.9977 9.00595C14.7071 9.05961 14.6245 9.13219 12.9258 10.825L11.2521 12.493L10.4433 11.6893C9.8911 11.1405 9.56759 10.8551 9.42379 10.7899C8.64197 10.4354 7.82234 11.1245 8.02051 11.9696C8.07953 12.2212 10.2896 14.5495 10.7281 14.8221C10.9725 14.974 11.4476 14.9874 11.7301 14.8502C11.9619 14.7377 15.9668 10.7099 16.0988 10.4566C16.4767 9.731 15.8122 8.85551 14.9977 9.00595Z" fill="#8B9298"/>
</svg>
