<svg width="24" height="24" viewBox="0 0 24 24" fill="none" xmlns="http://www.w3.org/2000/svg">
<path fill-rule="evenodd" clip-rule="evenodd" d="M2.88504 2.46255C2.71034 2.54055 2.50859 2.75219 2.44273 2.92652C2.37326 3.11027 2.37326 10.4945 2.44273 10.6782C2.5038 10.8399 2.70105 11.0537 2.87098 11.1425C2.97691 11.1979 3.61868 11.2086 6.80435 11.2086H10.6112L10.8033 11.096C10.9106 11.0331 11.0418 10.901 11.1004 10.7967L11.2054 10.6099V6.80538C11.2054 3.62163 11.1946 2.98019 11.1392 2.87426C11.0504 2.70434 10.8366 2.50709 10.675 2.44601C10.4618 2.36543 3.06738 2.38118 2.88504 2.46255ZM13.2913 2.46584C12.7641 2.71343 12.7995 2.40223 12.7993 6.79826L12.7991 10.6144L12.9117 10.8066C12.9746 10.9139 13.1067 11.045 13.211 11.1037L13.3978 11.2086H17.1852C21.4522 11.2086 21.2142 11.2286 21.471 10.8495L21.5882 10.6765L21.6018 6.92304C21.6178 2.50127 21.6375 2.67991 21.1099 2.45946C20.8807 2.36369 13.4959 2.36974 13.2913 2.46584ZM9.60026 6.8141L9.58816 9.59144L6.81082 9.60354L4.03348 9.61563V6.82619V4.03676H6.82291H9.61235L9.60026 6.8141ZM19.971 6.82619V9.61563L17.1936 9.60354L14.4163 9.59144L14.4042 6.8141L14.3921 4.03676H17.1815H19.971V6.82619ZM2.83816 12.8901C2.65151 13.006 2.50413 13.1711 2.44287 13.3328C2.3733 13.5164 2.37316 20.9004 2.44273 21.0845C2.51055 21.2641 2.71282 21.4723 2.89526 21.5503C3.08899 21.6333 10.4576 21.6471 10.675 21.565C10.8366 21.5039 11.0504 21.3067 11.1392 21.1368C11.1946 21.0308 11.2054 20.3894 11.2054 17.2056V13.4011L11.1004 13.2143C11.0418 13.11 10.9106 12.9779 10.8033 12.915L10.6112 12.8024L6.79498 12.8026C3.15391 12.8027 2.97232 12.8067 2.83816 12.8901ZM13.2027 12.9132C13.1024 12.9739 12.9707 13.1057 12.91 13.206L12.7996 13.3883L12.7993 17.1993C12.7991 21.3449 12.7852 21.125 13.0645 21.3892C13.3062 21.618 13.2496 21.6149 17.2099 21.6149C21.3371 21.6149 21.1379 21.6289 21.4108 21.3182C21.6228 21.0768 21.6168 21.2098 21.6018 17.088L21.5882 13.3346L21.4718 13.1647C21.2065 12.7776 21.4985 12.8023 17.199 12.8026L13.385 12.8029L13.2027 12.9132ZM9.60026 17.1969L9.61235 19.9743H6.82291H4.03348V17.1848V14.3954L6.81082 14.4075L9.58816 14.4196L9.60026 17.1969ZM19.971 17.1852V19.9743H17.1819H14.3929V17.2165C14.3929 15.6996 14.4069 14.4446 14.4241 14.4274C14.4413 14.4102 15.6964 14.3961 17.2132 14.3961H19.971V17.1852Z" fill="black"/>
</svg>
