<svg width="48" height="48" viewBox="0 0 48 48" fill="none" xmlns="http://www.w3.org/2000/svg">
<g id="time">
<path id="clock (1) 1 (Traced)" fill-rule="evenodd" clip-rule="evenodd" d="M21.6644 2.10521C4.08318 4.0748 -4.21904 24.9429 7.24893 38.3388C20.4877 53.8034 45.9427 44.4648 45.9832 24.1286C46.0095 10.9681 34.62 0.65377 21.6644 2.10521ZM26.5631 6.27877C38.4996 7.91668 45.4303 20.9828 40.1338 31.863C33.5859 45.3138 14.3123 45.2768 7.83299 31.801C1.63124 18.9027 12.329 4.32558 26.5631 6.27877ZM23.3572 10.1133C22.7891 10.2904 22.2501 10.8404 22.0787 11.4174C21.8734 12.1086 21.8738 23.9642 22.0792 24.6506C22.2315 25.1598 28.4651 31.5211 29.1444 31.8606C30.4215 32.4988 31.9855 31.4749 31.9855 30.0008C31.9855 29.1961 31.7933 28.9522 28.8379 26.0041L26.0659 23.2392V17.5603C26.0659 11.1772 26.0705 11.227 25.4271 10.5988C24.8545 10.0397 24.1346 9.8709 23.3572 10.1133Z" fill="#9A52DF"/>
</g>
</svg>
