<svg width="20" height="20" viewBox="0 0 20 20" fill="none" xmlns="http://www.w3.org/2000/svg">
<g id="warning" clip-path="url(#clip0_510_4931)">
<path id="warning 1 (Traced)" fill-rule="evenodd" clip-rule="evenodd" d="M9.37619 0.650438C8.62685 0.814539 7.95572 1.27962 7.5465 1.91841C7.26142 2.36337 0.295175 15.2071 0.184901 15.4911C-0.422521 17.0549 0.524354 18.8751 2.1808 19.3279C2.57428 19.4355 17.4123 19.4355 17.8058 19.3279C19.4738 18.872 20.4258 17.0117 19.7908 15.4493C19.6815 15.1806 12.6818 2.29567 12.4401 1.91841C11.7968 0.914266 10.5423 0.395086 9.37619 0.650438ZM10.4842 5.48778C10.7218 5.59591 10.9355 5.80673 11.0566 6.05251L11.1456 6.23325V9.45591C11.1456 12.6501 11.1449 12.6801 11.0634 12.8563C10.6315 13.7897 9.3551 13.7897 8.92322 12.8563C8.8417 12.6801 8.84096 12.6501 8.84096 9.45591V6.23325L8.93002 6.05251C9.22361 5.45657 9.88635 5.21579 10.4842 5.48778ZM10.4842 14.8628C11.3769 15.269 11.3756 16.5392 10.4819 16.962C10.028 17.1767 9.45869 17.0659 9.13771 16.7003C8.29615 15.7419 9.32635 14.336 10.4842 14.8628Z" fill="#E94410"/>
</g>
<defs>
<clipPath id="clip0_510_4931">
<rect width="20" height="20" fill="white"/>
</clipPath>
</defs>
</svg>
