<svg width="24" height="24" viewBox="0 0 24 24" fill="none" xmlns="http://www.w3.org/2000/svg">
<g clip-path="url(#clip0_131_4914)">
<path fill-rule="evenodd" clip-rule="evenodd" d="M10.5347 2.69789C9.51451 2.97778 8.66808 3.88036 8.48377 4.88503C8.42616 5.19895 8.42611 5.199 8.21372 5.27808C4.7101 6.58252 2.09879 10.3185 1.88668 14.3303C1.83136 15.3762 1.67921 15.6022 0.943739 15.7306C0.512114 15.806 0.319927 15.9106 0.145505 16.1649C0.0120047 16.3596 -0.0554953 18.6414 0.0564891 19.1727C0.218583 19.9417 0.81952 20.7234 1.51125 21.0651C2.1878 21.3992 1.35554 21.3747 12.0091 21.3747C22.6627 21.3747 21.8304 21.3992 22.5069 21.0651C23.1987 20.7234 23.7996 19.9417 23.9617 19.1727C24.0737 18.6414 24.0062 16.3596 23.8727 16.1649C23.6983 15.9106 23.5061 15.806 23.0745 15.7306C22.339 15.6022 22.1868 15.3762 22.1315 14.3303C21.9533 10.9594 20.2785 8.01431 17.4935 6.17447C17.0532 5.88356 15.754 5.20392 15.6383 5.20392C15.6134 5.20392 15.5669 5.06156 15.5349 4.88752C15.3496 3.87741 14.4876 2.96035 13.4789 2.7001C13.0955 2.60119 10.8933 2.5995 10.5347 2.69789ZM12.9362 4.54983C13.2079 4.6081 13.4633 4.80497 13.585 5.04994C13.6687 5.21831 13.6744 5.43347 13.6966 9.26208L13.72 13.2968L13.833 13.4616C14.2109 14.013 15.0573 14.013 15.4352 13.4616L15.5482 13.2968L15.5716 10.2861L15.595 7.27542L16.0403 7.53131C18.5945 8.99888 20.0731 11.5196 20.2376 14.6867C20.2548 15.0167 20.2964 15.3911 20.33 15.5187L20.3912 15.7508H12.0091H3.62696L3.6894 15.5142C3.72371 15.384 3.76571 14.9886 3.78272 14.6353C3.9354 11.4629 5.49315 8.90302 8.17608 7.41563L8.44458 7.26675L8.45733 10.2818L8.47004 13.2968L8.583 13.4616C8.96087 14.013 9.80733 14.013 10.1852 13.4616L10.2982 13.2968L10.3216 9.26208C10.3478 4.74244 10.3241 5.03513 10.6889 4.73438C10.9546 4.51542 12.2715 4.40728 12.9362 4.54983ZM22.1341 18.0688C22.1341 18.9424 21.9224 19.3341 21.3883 19.4486C21.0434 19.5226 2.97479 19.5226 2.62988 19.4486C2.09579 19.3341 1.8841 18.9424 1.8841 18.0688V17.6258H12.0091H22.1341V18.0688Z" fill="#8B9298"/>
</g>
<defs>
<clipPath id="clip0_131_4914">
<rect width="24" height="24" fill="white"/>
</clipPath>
</defs>
</svg>
