<svg width="20" height="20" viewBox="0 0 20 20" fill="none" xmlns="http://www.w3.org/2000/svg">
<g id="Frame 115" clip-path="url(#clip0_829_8054)">
<path id="write 1 (Traced)" fill-rule="evenodd" clip-rule="evenodd" d="M10.2972 0.487972C9.76015 0.655824 9.72417 0.702855 8.4735 2.87203C7.45706 4.63496 7.41936 4.69379 7.3221 4.66938C6.32616 4.41942 6.00663 4.53516 4.44468 5.71172C2.84706 6.9152 2.91413 6.82887 1.26776 9.79864C-0.0652064 12.2031 -0.0966517 12.2872 0.0714342 13C0.243153 13.7285 0.916317 14.3948 1.56893 14.4823C1.76475 14.5086 1.76386 14.4767 1.57843 14.8179C1.41975 15.1098 0.59034 18.6227 0.592645 18.9929C0.595106 19.3812 0.964715 19.6525 1.33472 19.5377C1.43116 19.5078 1.76882 19.2331 2.37589 18.6908C2.87003 18.2493 3.3546 17.8198 3.45276 17.7363L3.63116 17.5844L3.79401 17.808C4.43108 18.6828 5.67597 18.8507 6.55409 18.1803L6.73409 18.0428L6.87089 18.1629C7.91132 19.0764 9.81276 18.3939 9.9937 17.042C10.0331 16.7474 10.0226 16.7538 10.2938 16.8605C12.0551 17.5536 14.3117 17.598 16.1419 16.9755L16.4189 16.8813V17.0201C16.4189 17.2115 16.5556 17.4372 16.7315 17.5361C16.8735 17.6159 16.9263 17.6188 18.2157 17.6188C19.7273 17.6188 19.7572 17.6134 19.9299 17.3061L20.0126 17.1589V12.3454V7.53176L19.925 7.37594C19.7571 7.07711 19.7278 7.07192 18.2128 7.07192C16.5216 7.07192 16.4189 7.11321 16.4189 7.79301V8.04848H16.023H15.6271L13.2875 6.83297L10.948 5.61746L11.0412 5.45602C12.8662 2.29387 12.688 2.64731 12.6882 2.1891C12.6884 1.53832 12.4722 1.24942 11.6297 0.775042C11.0198 0.431566 10.6989 0.362425 10.2972 0.487972ZM11.1357 1.83883C11.6158 2.12047 11.6173 2.12606 11.3466 2.58828C11.2424 2.76621 11.0843 3.0377 10.9953 3.1916L10.8334 3.47145L10.3258 3.17828C9.90331 2.93422 9.82421 2.8743 9.85346 2.82032C10.0427 2.47094 10.5356 1.6568 10.5718 1.63379C10.6605 1.57735 10.7379 1.60551 11.1357 1.83883ZM9.81729 4.23254C10.0429 4.36231 10.2325 4.47196 10.2388 4.47618C10.245 4.48043 9.23128 6.24832 7.986 8.40485L5.7219 12.3258L5.03374 12.3365L4.34554 12.3472L4.40202 12.2584C4.43311 12.2095 5.5078 10.3502 6.79026 8.1266C8.07268 5.90297 9.14718 4.04379 9.178 3.99508C9.2428 3.89266 9.19682 3.87559 9.81729 4.23254ZM6.7971 5.77309C6.78776 5.78918 5.85268 7.41078 4.71917 9.3766C3.58565 11.3424 2.61432 13.0098 2.56065 13.082C2.1112 13.6864 1.09327 13.222 1.19557 12.4593C1.23999 12.1283 3.5537 8.05059 3.93807 7.62598C4.10694 7.43942 5.98682 5.98703 6.22128 5.86203C6.41003 5.76133 6.84264 5.69453 6.7971 5.77309ZM12.8662 7.93082L15.3446 9.21942L15.882 9.21989L16.4193 9.22035L16.4093 12.4321L16.3993 15.6439L15.9271 15.8076C13.8694 16.5214 11.8968 16.3875 9.89542 15.3985L9.28995 15.0993L6.61417 15.0797C4.22097 15.0623 3.926 15.0534 3.8212 14.9955C3.30069 14.7084 3.26651 14 3.75651 13.6556L3.9255 13.5368L6.66905 13.5172L9.41265 13.4977L10.316 12.821C11.4266 11.989 11.5407 11.8 11.1806 11.3899C10.8714 11.0377 10.6927 11.087 9.7635 11.7808L9.00745 12.3454H8.0419C7.45268 12.3454 7.08147 12.331 7.08944 12.3084C7.11909 12.2244 10.3464 6.64539 10.3662 6.64387C10.3782 6.64297 11.5032 7.22211 12.8662 7.93082ZM18.8407 12.3454V16.4469H18.2157H17.5907V12.3454V8.24379H18.2157H18.8407V12.3454ZM3.24229 16.0064C3.35647 16.0661 3.44995 16.127 3.45003 16.1418C3.45011 16.1697 2.21632 17.2782 2.16319 17.2979C2.14003 17.3065 2.36397 16.2282 2.5337 15.5138C2.55472 15.4253 2.56796 15.4326 2.79526 15.6593C2.92694 15.7905 3.12811 15.9468 3.24229 16.0064ZM6.13745 16.5626C6.12261 16.8193 6.09952 16.9058 6.0055 17.0576C5.52753 17.8293 4.25405 17.2385 4.69034 16.4475L4.79776 16.2527L5.47659 16.2522L6.15546 16.2516L6.13745 16.5626ZM8.87182 16.5626C8.80382 17.7373 7.31729 17.7216 7.31729 16.5461V16.2516H8.10354H8.88983L8.87182 16.5626Z" fill="#E94410"/>
</g>
<defs>
<clipPath id="clip0_829_8054">
<rect width="20" height="20" fill="white"/>
</clipPath>
</defs>
</svg>
